<svg viewBox="0 0 748.6 130.09" xmlns="http://www.w3.org/2000/svg" data-name="Layer 2" id="Layer_2">
  <defs>
    <style>
      .cls-1 {
        fill: none;
        stroke: #231f20;
        stroke-miterlimit: 10;
        stroke-width: 2px;
      }

      .cls-2 {
        fill: #231f20;
        stroke-width: 0px;
      }
    </style>
  </defs>
  <g data-name="Layer 1" id="Layer_1-2">
    <rect height="128.09" width="128.09" y="1" x="1" class="cls-1"></rect>
    <polygon points="102.93 35.72 102.93 94.65 109.19 101.44 109.19 42.24 102.93 35.72" class="cls-2"></polygon>
    <path d="M20.88,20.26v89.56h6.26V28.51c2.63,2.9,73.38,80.97,73.38,80.97h8.69L28.12,20.26h-7.24Z" class="cls-2"></path>
    <polygon points="102.93 20.37 102.93 29.77 109.19 36.34 109.19 20.37 102.93 20.37" class="cls-2"></polygon>
    <polygon points="383.55 104.63 378.87 104.63 357.49 29.08 336.1 104.63 331.41 104.63 307.62 21.27 312.31 21.27 333.69 96.7 355.09 21.27 359.89 21.27 381.27 96.7 402.66 21.27 407.22 21.27 383.55 104.63" class="cls-2"></polygon>
    <rect height="83.36" width="4.42" y="21.27" x="418.5" class="cls-2"></rect>
    <polygon points="521.2 104.63 516.59 104.63 516.59 31.72 484.63 104.63 479.71 104.63 447.63 31.72 447.63 104.63 443.21 104.63 443.21 21.27 447.9 21.27 482.15 99.23 516.38 21.27 521.2 21.27 521.2 104.63" class="cls-2"></polygon>
    <path d="M544.9,75.92l-11.05,28.71h-4.81l31.95-83.36h4.93l31.95,83.36h-4.8l-11.05-28.71h-37.12ZM563.4,27.41l-16.82,44.09h33.76l-16.94-44.09Z" class="cls-2"></path>
    <path d="M680.93,104.63h-4.51v-22.7c-3.04,7.53-7.67,13.44-13.88,17.72-6.21,4.29-13.56,6.43-22.04,6.43-5.68,0-11.03-1.14-16.03-3.42-5.01-2.28-9.37-5.38-13.1-9.31-3.71-3.92-6.66-8.52-8.83-13.8-2.15-5.29-3.24-10.93-3.24-16.93s1.09-11.63,3.24-16.87c2.16-5.24,5.1-9.83,8.84-13.75,3.71-3.92,8.09-7.03,13.1-9.31,5.01-2.28,10.36-3.42,16.05-3.42,4.65,0,8.99.64,13.05,1.91,4.05,1.27,7.73,3.09,11.05,5.46,3.33,2.36,6.23,5.26,8.72,8.71,2.48,3.45,4.45,7.33,5.89,11.65h-4.81c-2.81-7.29-7.16-13-13.05-17.12-5.9-4.12-12.85-6.18-20.87-6.18-5.04,0-9.82,1.02-14.31,3.06-4.5,2.04-8.4,4.83-11.73,8.35-3.33,3.52-5.95,7.65-7.87,12.38-1.93,4.72-2.89,9.77-2.89,15.14s.96,10.53,2.88,15.25c1.92,4.73,4.54,8.85,7.87,12.38,3.33,3.53,7.23,6.31,11.72,8.35,4.48,2.04,9.25,3.06,14.3,3.06s9.44-.87,13.65-2.58c4.21-1.73,7.87-4.15,11-7.27,3.12-3.13,5.65-6.86,7.56-11.19,1.93-4.33,3.13-9.09,3.61-14.31h-28.44v-4.41h33.06v42.73Z" class="cls-2"></path>
    <rect height="4.42" width="45.36" y="58.73" x="256.88" class="cls-2"></rect>
    <rect height="4.41" width="46.03" y="100.22" x="256.88" class="cls-2"></rect>
    <rect height="4.42" width="46.03" y="21.27" x="256.88" class="cls-2"></rect>
    <rect height="83.36" width="4.42" y="21.27" x="693.37" class="cls-2"></rect>
    <rect height="4.42" width="45.63" y="58.73" x="702.57" class="cls-2"></rect>
    <rect height="4.41" width="46.03" y="100.22" x="702.58" class="cls-2"></rect>
    <rect height="4.42" width="46.03" y="21.27" x="702.58" class="cls-2"></rect>
    <polygon points="250.78 98.11 250.78 21.27 246.36 21.27 246.36 93.48 250.78 98.11" class="cls-2"></polygon>
    <path d="M175.83,21.66h-5.75v82.8h4.42V26.78c2.48,2.74,70.11,77.35,70.11,77.35h6.18L175.83,21.66Z" class="cls-2"></path>
  </g>
</svg>