<svg width="2682" height="667" viewBox="0 0 2682 667" fill="none" xmlns="http://www.w3.org/2000/svg">
<path d="M262.187 460.993H217.586C215.6 459.55 211.086 459.73 207.294 459.369C98.9521 448.183 12.0982 367.17 1.44456 258.009C1.08342 254.942 0.722278 252.235 0 251.153V210.195C6.50051 144.879 36.6556 86.0587 89.9237 47.0857C139.219 10.2779 199.168 -3.43481 260.02 0.71509C385.336 9.37576 478.509 103.56 478.69 230.584C478.69 293.193 455.758 352.013 410.615 395.678C369.807 435.192 317.261 455.22 262.006 460.993H262.187ZM429.756 230.584C429.756 125.573 344.346 40.5902 238.894 40.5902C133.441 40.5902 48.2121 125.573 48.2121 230.584C48.2121 335.594 133.621 420.577 239.074 420.577C344.527 420.577 429.936 335.414 429.936 230.584H429.756Z" fill="black"/>
<path d="M217.586 460.993H0V251.152C0.722278 252.235 1.08342 255.122 1.44456 258.009C12.2787 367.169 98.9521 448.363 207.294 459.369C211.086 459.73 215.6 459.73 217.586 460.993Z" fill="white"/>
<path d="M1541.34 456.844L1403.21 457.565L1320.32 337.038H1250.62L1250.26 457.565H1121.16V3.96289L1348.31 4.50418C1384.97 4.50418 1419.1 14.7887 1450.88 30.847C1494.21 54.1226 1522.74 93.8173 1530.15 142.353C1540.44 216.149 1514.08 281.285 1443.29 315.025L1541.16 457.204L1541.34 456.844ZM1395.8 142.173C1389.84 127.919 1378.29 118.717 1364.38 112.402C1352.47 108.613 1340.01 105.545 1327.19 105.545H1250.62V237.62L1331.34 237.26C1344.34 237.26 1356.8 233.11 1368.36 228.779C1401.76 213.443 1408.62 172.124 1395.98 142.173H1395.8Z" fill="black"/>
<path d="M2533.21 275.33L2331.15 275.511L2330.97 357.607H2569.14V457.565L2202.77 457.385V3.96266L2560.48 3.78223L2560.66 103.56H2330.97L2331.15 179.341H2533.21V275.33Z" fill="black"/>
<path d="M2028.88 457.024L1899.59 457.204V106.086H1759.83V3.78223H2168.28V106.086H2028.88V457.024Z" fill="black"/>
<path d="M922.711 456.122C909.529 458.106 896.528 457.565 882.082 457.204L590.101 90.5693L589.74 457.024H541.348V3.96266H581.795L874.499 370.778V4.14309L922.711 3.78223V456.122Z" fill="black"/>
<path d="M1726.25 3.78223H1596.78V457.565H1726.25V3.78223Z" fill="black"/>
<path d="M2682 53.2202C2682 80.6456 2659.79 102.658 2632.34 102.658C2604.9 102.658 2582.69 80.4652 2582.69 53.2202C2582.69 25.9752 2604.9 3.78223 2632.34 3.78223C2659.79 3.78223 2682 25.9752 2682 53.2202ZM2672.97 53.4006C2672.97 31.2077 2654.92 12.9842 2632.52 12.9842C2610.13 12.9842 2592.08 31.0272 2592.08 53.4006C2592.08 75.774 2610.13 93.8171 2632.52 93.8171C2654.92 93.8171 2672.97 75.774 2672.97 53.4006Z" fill="black"/>
<path d="M2653.83 81.7283C2651.66 81.7283 2646.79 82.0892 2645.16 81.5479C2641.19 80.4653 2642.82 66.5722 2637.76 61.3397C2635.05 58.4528 2627.47 57.9115 2623.68 58.8137L2623.31 82.0892H2614.11V26.3362C2628.55 24.8927 2650.58 22.5471 2652.57 38.6054C2653.47 45.4618 2649.86 51.2356 2643.9 54.4833C2646.61 57.5506 2649.86 61.881 2650.58 64.9483L2654.01 81.7283H2653.83ZM2642.64 42.0336C2642.45 33.5534 2631.62 31.5686 2623.68 32.8317V51.2356C2631.08 51.9573 2642.82 49.9726 2642.64 42.0336Z" fill="black"/>
<path d="M260.44 635V545.4H298.2C327 545.4 346.584 563.576 346.584 590.2C346.584 616.824 327 635 298.2 635H260.44ZM273.24 623.864H297.432C319.576 623.864 333.784 610.296 333.784 590.2C333.784 570.104 319.576 556.536 297.432 556.536H273.24V623.864ZM364.842 635.768C360.106 635.768 356.138 632.056 356.138 626.936C356.138 621.816 360.106 618.232 364.842 618.232C369.45 618.232 373.29 621.816 373.29 626.936C373.29 632.056 369.45 635.768 364.842 635.768ZM452.978 588.536C463.09 591.352 469.746 598.904 469.746 610.808C469.746 626.168 458.098 635 435.442 635H392.69V545.4H432.882C453.49 545.4 465.01 554.104 465.01 568.568C465.01 578.296 460.018 585.08 452.978 588.536ZM431.73 555.768H405.49V584.44H431.73C444.786 584.44 452.21 579.576 452.21 570.104C452.21 560.632 444.786 555.768 431.73 555.768ZM434.93 624.632C449.138 624.632 456.818 620.152 456.818 609.784C456.818 599.416 449.138 594.808 434.93 594.808H405.49V624.632H434.93ZM491.092 635.768C486.356 635.768 482.388 632.056 482.388 626.936C482.388 621.816 486.356 618.232 491.092 618.232C495.7 618.232 499.54 621.816 499.54 626.936C499.54 632.056 495.7 635.768 491.092 635.768ZM590.134 635L580.278 612.6H532.662L522.806 635H509.622L550.198 545.4H562.87L603.574 635H590.134ZM537.142 602.36H575.798L556.47 558.456L537.142 602.36ZM678.579 635.768C658.227 635.768 643.251 621.304 643.251 601.08C643.251 580.856 658.227 566.52 678.579 566.52C698.931 566.52 713.779 580.856 713.779 601.08C713.779 621.304 698.931 635.768 678.579 635.768ZM678.579 625.016C691.635 625.016 701.363 615.544 701.363 601.08C701.363 586.616 691.635 577.272 678.579 577.272C665.523 577.272 655.667 586.616 655.667 601.08C655.667 615.544 665.523 625.016 678.579 625.016ZM755.605 549.368C748.309 549.368 744.597 553.464 744.597 561.272V567.16H764.309V577.272H744.853V635H732.565V577.272H721.045V567.16H732.565V561.144C732.565 547.96 740.501 539.256 754.965 539.256C760.213 539.256 765.333 540.536 768.789 543.224L765.077 552.568C762.517 550.648 759.189 549.368 755.605 549.368ZM876.321 545.4H889.121V635H876.321V595.064H824.865V635H812.065V545.4H824.865V583.928H876.321V545.4ZM938.852 566.52C957.412 566.52 967.908 575.48 967.908 594.04V635H956.26V626.04C952.164 632.184 944.612 635.768 933.988 635.768C918.628 635.768 908.9 627.576 908.9 615.8C908.9 604.92 915.94 595.96 936.164 595.96H955.62V593.528C955.62 583.16 949.604 577.144 937.444 577.144C929.38 577.144 921.188 579.96 915.94 584.44L910.82 575.224C917.86 569.592 927.972 566.52 938.852 566.52ZM936.036 626.296C945.252 626.296 952.548 622.072 955.62 614.264V604.792H936.676C924.516 604.792 921.06 609.528 921.06 615.288C921.06 622.072 926.692 626.296 936.036 626.296ZM996.792 554.104C992.056 554.104 988.472 550.648 988.472 546.168C988.472 541.688 992.056 538.104 996.792 538.104C1001.53 538.104 1005.11 541.56 1005.11 545.912C1005.11 550.52 1001.66 554.104 996.792 554.104ZM990.648 635V567.16H1002.94V635H990.648ZM1038.17 578.552C1042.53 570.616 1050.97 566.52 1062.88 566.52V578.424C1061.85 578.296 1060.96 578.296 1060.06 578.296C1046.88 578.296 1038.69 586.36 1038.69 601.208V635H1026.4V567.16H1038.17V578.552ZM1180.09 545.4H1192.89L1153.59 635H1140.92L1101.5 545.4H1115.32L1147.58 619L1180.09 545.4ZM1208.79 554.104C1204.06 554.104 1200.47 550.648 1200.47 546.168C1200.47 541.688 1204.06 538.104 1208.79 538.104C1213.53 538.104 1217.11 541.56 1217.11 545.912C1217.11 550.52 1213.66 554.104 1208.79 554.104ZM1202.65 635V567.16H1214.94V635H1202.65ZM1257.85 635.768C1246.59 635.768 1235.45 632.312 1229.82 627.832L1234.94 618.104C1240.7 622.2 1249.92 625.144 1258.75 625.144C1270.14 625.144 1274.88 621.688 1274.88 615.928C1274.88 600.696 1232 613.88 1232 586.872C1232 574.712 1242.88 566.52 1260.29 566.52C1269.12 566.52 1279.1 568.824 1284.99 572.664L1279.74 582.392C1273.6 578.424 1266.81 577.016 1260.16 577.016C1249.41 577.016 1244.16 580.984 1244.16 586.36C1244.16 602.36 1287.17 589.304 1287.17 615.672C1287.17 627.96 1275.9 635.768 1257.85 635.768ZM1308.67 554.104C1303.93 554.104 1300.35 550.648 1300.35 546.168C1300.35 541.688 1303.93 538.104 1308.67 538.104C1313.4 538.104 1316.99 541.56 1316.99 545.912C1316.99 550.52 1313.53 554.104 1308.67 554.104ZM1302.52 635V567.16H1314.81V635H1302.52ZM1367.33 635.768C1346.98 635.768 1332 621.304 1332 601.08C1332 580.856 1346.98 566.52 1367.33 566.52C1387.68 566.52 1402.53 580.856 1402.53 601.08C1402.53 621.304 1387.68 635.768 1367.33 635.768ZM1367.33 625.016C1380.39 625.016 1390.11 615.544 1390.11 601.08C1390.11 586.616 1380.39 577.272 1367.33 577.272C1354.27 577.272 1344.42 586.616 1344.42 601.08C1344.42 615.544 1354.27 625.016 1367.33 625.016ZM1455.75 566.52C1472.26 566.52 1483.91 575.992 1483.91 595.96V635H1471.62V597.368C1471.62 584.056 1464.96 577.528 1453.32 577.528C1440.26 577.528 1431.81 585.336 1431.81 600.056V635H1419.52V567.16H1431.3V577.4C1436.29 570.488 1445 566.52 1455.75 566.52ZM1526.1 635.768C1514.84 635.768 1503.7 632.312 1498.07 627.832L1503.19 618.104C1508.95 622.2 1518.17 625.144 1527 625.144C1538.39 625.144 1543.13 621.688 1543.13 615.928C1543.13 600.696 1500.25 613.88 1500.25 586.872C1500.25 574.712 1511.13 566.52 1528.54 566.52C1537.37 566.52 1547.35 568.824 1553.24 572.664L1547.99 582.392C1541.85 578.424 1535.06 577.016 1528.41 577.016C1517.66 577.016 1512.41 580.984 1512.41 586.36C1512.41 602.36 1555.42 589.304 1555.42 615.672C1555.42 627.96 1544.15 635.768 1526.1 635.768ZM1606.94 635V545.4H1619.74V635H1606.94ZM1681 566.52C1697.51 566.52 1709.16 575.992 1709.16 595.96V635H1696.87V597.368C1696.87 584.056 1690.21 577.528 1678.57 577.528C1665.51 577.528 1657.06 585.336 1657.06 600.056V635H1644.77V567.16H1656.55V577.4C1661.54 570.488 1670.25 566.52 1681 566.52ZM1766.2 622.2L1770.04 631.032C1766.33 634.232 1760.7 635.768 1755.19 635.768C1741.5 635.768 1733.69 628.216 1733.69 614.52V577.272H1722.17V567.16H1733.69V552.312H1745.98V567.16H1765.43V577.272H1745.98V614.008C1745.98 621.304 1749.82 625.4 1756.6 625.4C1760.19 625.4 1763.64 624.248 1766.2 622.2ZM1843.96 601.464C1843.96 602.488 1843.83 604.024 1843.7 605.176H1788.66C1790.2 617.08 1799.8 625.016 1813.24 625.016C1821.18 625.016 1827.83 622.328 1832.82 616.824L1839.61 624.76C1833.46 631.928 1824.12 635.768 1812.86 635.768C1790.97 635.768 1776.38 621.304 1776.38 601.08C1776.38 580.984 1790.84 566.52 1810.42 566.52C1830.01 566.52 1843.96 580.6 1843.96 601.464ZM1810.42 576.888C1798.65 576.888 1789.94 584.824 1788.66 596.344H1832.18C1830.9 584.952 1822.33 576.888 1810.42 576.888ZM1872.8 578.552C1877.15 570.616 1885.6 566.52 1897.5 566.52V578.424C1896.48 578.296 1895.58 578.296 1894.69 578.296C1881.5 578.296 1873.31 586.36 1873.31 601.208V635H1861.02V567.16H1872.8V578.552ZM1948.87 566.52C1965.38 566.52 1977.03 575.992 1977.03 595.96V635H1964.74V597.368C1964.74 584.056 1958.09 577.528 1946.44 577.528C1933.38 577.528 1924.94 585.336 1924.94 600.056V635H1912.65V567.16H1924.42V577.4C1929.42 570.488 1938.12 566.52 1948.87 566.52ZM2024.48 566.52C2043.04 566.52 2053.53 575.48 2053.53 594.04V635H2041.89V626.04C2037.79 632.184 2030.24 635.768 2019.61 635.768C2004.25 635.768 1994.53 627.576 1994.53 615.8C1994.53 604.92 2001.57 595.96 2021.79 595.96H2041.25V593.528C2041.25 583.16 2035.23 577.144 2023.07 577.144C2015.01 577.144 2006.81 579.96 2001.57 584.44L1996.45 575.224C2003.49 569.592 2013.6 566.52 2024.48 566.52ZM2021.66 626.296C2030.88 626.296 2038.17 622.072 2041.25 614.264V604.792H2022.3C2010.14 604.792 2006.69 609.528 2006.69 615.288C2006.69 622.072 2012.32 626.296 2021.66 626.296ZM2110.58 622.2L2114.42 631.032C2110.71 634.232 2105.07 635.768 2099.57 635.768C2085.87 635.768 2078.07 628.216 2078.07 614.52V577.272H2066.55V567.16H2078.07V552.312H2090.35V567.16H2109.81V577.272H2090.35V614.008C2090.35 621.304 2094.19 625.4 2100.98 625.4C2104.56 625.4 2108.02 624.248 2110.58 622.2ZM2135.42 554.104C2130.68 554.104 2127.1 550.648 2127.1 546.168C2127.1 541.688 2130.68 538.104 2135.42 538.104C2140.15 538.104 2143.74 541.56 2143.74 545.912C2143.74 550.52 2140.28 554.104 2135.42 554.104ZM2129.27 635V567.16H2141.56V635H2129.27ZM2194.08 635.768C2173.73 635.768 2158.75 621.304 2158.75 601.08C2158.75 580.856 2173.73 566.52 2194.08 566.52C2214.43 566.52 2229.28 580.856 2229.28 601.08C2229.28 621.304 2214.43 635.768 2194.08 635.768ZM2194.08 625.016C2207.14 625.016 2216.86 615.544 2216.86 601.08C2216.86 586.616 2207.14 577.272 2194.08 577.272C2181.02 577.272 2171.17 586.616 2171.17 601.08C2171.17 615.544 2181.02 625.016 2194.08 625.016ZM2282.5 566.52C2299.01 566.52 2310.66 575.992 2310.66 595.96V635H2298.37V597.368C2298.37 584.056 2291.71 577.528 2280.07 577.528C2267.01 577.528 2258.56 585.336 2258.56 600.056V635H2246.27V567.16H2258.05V577.4C2263.04 570.488 2271.75 566.52 2282.5 566.52ZM2358.1 566.52C2376.66 566.52 2387.16 575.48 2387.16 594.04V635H2375.51V626.04C2371.41 632.184 2363.86 635.768 2353.24 635.768C2337.88 635.768 2328.15 627.576 2328.15 615.8C2328.15 604.92 2335.19 595.96 2355.41 595.96H2374.87V593.528C2374.87 583.16 2368.85 577.144 2356.69 577.144C2348.63 577.144 2340.44 579.96 2335.19 584.44L2330.07 575.224C2337.11 569.592 2347.22 566.52 2358.1 566.52ZM2355.29 626.296C2364.5 626.296 2371.8 622.072 2374.87 614.264V604.792H2355.93C2343.77 604.792 2340.31 609.528 2340.31 615.288C2340.31 622.072 2345.94 626.296 2355.29 626.296ZM2409.9 635V540.024H2422.19V635H2409.9Z" fill="#525252"/>
</svg>
